<?xml version="1.0" standalone="no"?>
<!DOCTYPE svg PUBLIC "-//W3C//DTD SVG 20010904//EN"
 "http://www.w3.org/TR/2001/REC-SVG-20010904/DTD/svg10.dtd">
<svg version="1.0" xmlns="http://www.w3.org/2000/svg"
 width="1024.000000pt" height="1024.000000pt" viewBox="0 0 1024.000000 1024.000000"
 preserveAspectRatio="xMidYMid meet">
<metadata>
Created by potrace 1.11, written by Peter Selinger 2001-2013
</metadata>
<g transform="translate(0.000000,1024.000000) scale(0.100000,-0.100000)"
fill="#000000" stroke="none">
<path d="M2149 9455 c-118 -43 -202 -117 -252 -223 l-32 -67 -3 -4010 c-2
-3049 0 -4023 9 -4065 11 -54 25 -86 64 -145 18 -28 30 -41 82 -85 35 -30 103
-62 158 -75 37 -8 818 -11 2960 -10 2811 1 2912 1 2965 19 126 43 231 151 268
276 4 14 8 1297 9 2851 3 2689 2 2827 -14 2830 -10 3 -540 4 -1178 3 -947 -1
-1170 1 -1213 12 -138 36 -235 125 -288 264 -16 41 -18 139 -19 1240 l-1 1195
-1739 2 c-1408 1 -1747 -1 -1776 -12z m2361 -1085 c57 -24 66 -61 65 -267 -1
-200 -9 -230 -69 -251 -51 -19 -1445 -17 -1489 2 -62 25 -69 49 -69 230 0 88
0 176 1 193 1 42 46 92 89 101 18 4 349 7 736 6 569 0 709 -3 736 -14z m17
-1096 c43 -32 49 -68 48 -264 0 -165 -2 -181 -21 -207 -12 -15 -36 -33 -54
-39 -24 -8 -249 -11 -744 -11 -661 0 -713 1 -746 17 -56 28 -62 49 -64 226 -2
174 5 237 29 261 39 38 64 39 804 39 714 -1 720 -1 748 -22z m794 -1621 c15
-7 36 -23 47 -38 19 -24 21 -40 22 -257 0 -128 2 -233 3 -234 1 -1 27 -5 58
-8 82 -10 110 -16 193 -45 117 -41 295 -152 330 -206 9 -14 16 -35 16 -47 0
-28 -31 -81 -68 -115 -218 -203 -231 -212 -285 -213 -15 0 -67 19 -115 42
l-87 42 -280 4 c-326 5 -364 0 -420 -56 -45 -45 -66 -91 -70 -155 -7 -93 37
-177 112 -212 20 -10 97 -35 172 -56 206 -60 242 -70 288 -85 23 -7 52 -15 65
-18 13 -2 55 -14 93 -25 39 -12 102 -31 140 -42 152 -46 254 -106 366 -219 86
-86 138 -172 183 -299 27 -80 29 -97 30 -231 1 -165 -12 -229 -70 -344 -63
-127 -179 -253 -298 -325 -69 -41 -203 -88 -276 -96 -30 -4 -60 -8 -67 -10 -9
-3 -13 -68 -15 -244 l-3 -239 -29 -25 c-40 -34 -55 -36 -256 -34 -148 2 -179
5 -201 20 -45 31 -49 53 -49 297 l0 230 -37 1 c-123 2 -292 63 -429 154 -128
86 -154 128 -119 194 12 23 141 151 245 241 57 50 93 48 215 -8 l80 -37 303
-3 c291 -3 305 -2 347 18 72 35 117 105 120 189 5 145 -58 212 -245 260 -41
10 -154 42 -250 70 -96 29 -231 68 -299 87 -200 57 -309 115 -423 226 -60 59
-146 179 -173 243 -45 104 -57 161 -61 285 -7 241 56 402 226 571 70 69 131
112 223 154 69 32 198 65 252 65 l25 0 0 231 c0 327 -10 315 285 314 92 -1
171 -6 186 -12z"/>
<path d="M6208 9463 c-3 -7 -2 -2044 1 -2138 l1 -30 1085 0 1085 0 0 81 c0 89
-19 167 -56 231 -28 48 -1728 1752 -1792 1797 -23 16 -66 37 -95 46 -54 18
-222 27 -229 13z"/>
</g>
</svg>
