<svg version="1" xmlns="http://www.w3.org/2000/svg" width="1365.333" height="1365.333" viewBox="0 0 1024.000000 1024.000000"><path d="M214.9 78.5c-11.8 4.3-20.2 11.7-25.2 22.3l-3.2 6.7-.3 401c-.2 304.9 0 402.3.9 406.5 1.1 5.4 2.5 8.6 6.4 14.5 1.8 2.8 3 4.1 8.2 8.5 3.5 3 10.3 6.2 15.8 7.5 3.7.8 81.8 1.1 296 1 281.1-.1 291.2-.1 296.5-1.9 12.6-4.3 23.1-15.1 26.8-27.6.4-1.4.8-129.7.9-285.1.3-268.9.2-282.7-1.4-283-1-.3-54-.4-117.8-.3-94.7.1-117-.1-121.3-1.2-13.8-3.6-23.5-12.5-28.8-26.4-1.6-4.1-1.8-13.9-1.9-124l-.1-119.5-173.9-.2c-140.8-.1-174.7.1-177.6 1.2zM451 187c5.7 2.4 6.6 6.1 6.5 26.7-.1 20-.9 23-6.9 25.1-5.1 1.9-144.5 1.7-148.9-.2-6.2-2.5-6.9-4.9-6.9-23 0-8.8 0-17.6.1-19.3.1-4.2 4.6-9.2 8.9-10.1 1.8-.4 34.9-.7 73.6-.6 56.9 0 70.9.3 73.6 1.4zm1.7 109.6c4.3 3.2 4.9 6.8 4.8 26.4 0 16.5-.2 18.1-2.1 20.7-1.2 1.5-3.6 3.3-5.4 3.9-2.4.8-24.9 1.1-74.4 1.1-66.1 0-71.3-.1-74.6-1.7-5.6-2.8-6.2-4.9-6.4-22.6-.2-17.4.5-23.7 2.9-26.1 3.9-3.8 6.4-3.9 80.4-3.9 71.4.1 72 .1 74.8 2.2zm79.4 162.1c1.5.7 3.6 2.3 4.7 3.8 1.9 2.4 2.1 4 2.2 25.7 0 12.8.2 23.3.3 23.4.1.1 2.7.5 5.8.8 8.2 1 11 1.6 19.3 4.5 11.7 4.1 29.5 15.2 33 20.6.9 1.4 1.6 3.5 1.6 4.7 0 2.8-3.1 8.1-6.8 11.5-21.8 20.3-23.1 21.2-28.5 21.3-1.5 0-6.7-1.9-11.5-4.2l-8.7-4.2-28-.4c-32.6-.5-36.4 0-42 5.6-4.5 4.5-6.6 9.1-7 15.5-.7 9.3 3.7 17.7 11.2 21.2 2 1 9.7 3.5 17.2 5.6 20.6 6 24.2 7 28.8 8.5 2.3.7 5.2 1.5 6.5 1.8 1.3.2 5.5 1.4 9.3 2.5 3.9 1.2 10.2 3.1 14 4.2 15.2 4.6 25.4 10.6 36.6 21.9 8.6 8.6 13.8 17.2 18.3 29.9 2.7 8 2.9 9.7 3 23.1.1 16.5-1.2 22.9-7 34.4-6.3 12.7-17.9 25.3-29.8 32.5-6.9 4.1-20.3 8.8-27.6 9.6-3 .4-6 .8-6.7 1-.9.3-1.3 6.8-1.5 24.4l-.3 23.9-2.9 2.5c-4 3.4-5.5 3.6-25.6 3.4-14.8-.2-17.9-.5-20.1-2-4.5-3.1-4.9-5.3-4.9-29.7v-23l-3.7-.1c-12.3-.2-29.2-6.3-42.9-15.4-12.8-8.6-15.4-12.8-11.9-19.4 1.2-2.3 14.1-15.1 24.5-24.1 5.7-5 9.3-4.8 21.5.8l8 3.7 30.3.3c29.1.3 30.5.2 34.7-1.8 7.2-3.5 11.7-10.5 12-18.9.5-14.5-5.8-21.2-24.5-26-4.1-1-15.4-4.2-25-7-9.6-2.9-23.1-6.8-29.9-8.7-20-5.7-30.9-11.5-42.3-22.6-6-5.9-14.6-17.9-17.3-24.3-4.5-10.4-5.7-16.1-6.1-28.5-.7-24.1 5.6-40.2 22.6-57.1 7-6.9 13.1-11.2 22.3-15.4 6.9-3.2 19.8-6.5 25.2-6.5h2.5v-23.1c0-32.7-1-31.5 28.5-31.4 9.2.1 17.1.6 18.6 1.2z"/><path d="M620.8 77.7c-.3.7-.2 204.4.1 213.8l.1 3h217v-8.1c0-8.9-1.9-16.7-5.6-23.1-2.8-4.8-172.8-175.2-179.2-179.7-2.3-1.6-6.6-3.7-9.5-4.6-5.4-1.8-22.2-2.7-22.9-1.3z"/></svg>